<svg xmlns="http://www.w3.org/2000/svg" viewBox="0 0 512 512" role="img" aria-label="Kikoto">
  <path d="M122 374c42-4 77-8 104-25 20-13 43-22 55-42 13-21 5-45-12-61-24-22-58-48-101-41-22 4-42 16-49 36-8 21-4 49-1 67 32-2 61-8 83-25 30-23 53-54 68-89 18-42 13-92-5-120-17-27-45-38-81-32-13 2-25 8-32 19-10 6-15 15-19 29-8 18-14 39-19 63" fill="none" stroke="#147f8f" stroke-width="36" stroke-linecap="round" stroke-linejoin="round"/>
  <path d="M318 178c21 19 35 48 43 80 9 34 5 62-10 82-7 10-18 18-31 25" fill="none" stroke="#26a88d" stroke-width="32" stroke-linecap="round"/>
  <path d="M378 186c23 24 39 62 47 103 8 40 1 73-19 96-10 11-21 20-33 28" fill="none" stroke="#c8871b" stroke-width="32" stroke-linecap="round"/>
</svg>
